<svg width="151" height="138" viewBox="0 0 151 138" fill="none" xmlns="http://www.w3.org/2000/svg">
<path d="M0.137695 52.0073L48.332 47.5399L150.055 76.4059V80.2718L101.564 84.9969L0.137695 55.7875V52.0073Z" fill="#DBC3DB"/>
<path d="M0.137695 7.70018L48.332 0.931641L150.055 44.6663V48.9173L101.564 56.0762L0.137695 11.8213V7.70018Z" fill="#DBC3DB"/>
<path d="M0.137695 85.9707L48.332 83.1222L150.055 99.5311V103.457L101.564 106.47L0.137695 88.381V85.9707Z" fill="#DBC3DB"/>
<path d="M0.137695 113.737L48.332 111.657L150.055 117.887V121.813L101.564 123.855L0.137695 116.916V113.737Z" fill="#DBC3DB"/>
<rect x="0.137695" y="131.413" width="149.917" height="3.4363" fill="#DBC3DB"/>
<path d="M0.137695 54.4139L48.332 49.9465L150.055 78.8125V82.6784L101.564 87.4035L0.137695 58.1941V54.4139Z" fill="#DBC3DB"/>
<path d="M0.137695 9.98643L48.332 3.2179L150.055 46.9526V51.2036L101.564 58.3625L0.137695 14.1075V9.98643Z" fill="#DBC3DB"/>
<path d="M0.137695 90.1007L48.332 87.2522L150.055 103.661V107.587L101.564 110.6L0.137695 92.511V90.1007Z" fill="#DBC3DB"/>
<path d="M0.137695 116.989L48.332 114.909L150.055 121.139V125.065L101.564 127.107L0.137695 120.168V116.989Z" fill="#DBC3DB"/>
<rect x="0.137695" y="132.339" width="149.917" height="5.41274" fill="#DBC3DB"/>
<path d="M0.137695 114.099L150.055 119.146V124.193L0.137695 119.146V114.099Z" fill="#DBC3DB"/>
<path d="M0.137695 86.1108L150.055 100.847V106.134L0.137695 91.3976V86.1108Z" fill="#DBC3DB"/>
<path d="M0.137695 7.68994L150.055 45.3604V50.2519L0.137695 12.5814V7.68994Z" fill="#DBC3DB"/>
</svg>
